# xmcd
#
# Track frame offsets:
# 150
# 20111
# 37917
# 57536
# 73000
# 94348
# 108561
# 120397
# 137660
# 151375
# 168941
# 186286
# 195873
#
# Disc length: 2658 seconds
#
#
# Revision: 0
# Processed by: cddbd v1.5.2PL0 Copyright (c) Steve Scherf et al.
# Submitted via: FreeRIP 2.943 
#
DISCID=b00a600d
DTITLE=Against The Grain - lightning in the sky
DYEAR=1997
DGENRE=Blues
TTITLE0=I O U Something
TTITLE1=I Rather Should Be Running
TTITLE2=The Return Of The Blues
TTITLE3=Lightning In The Sky
TTITLE4=One Way Out
TTITLE5=Cafe' De France
TTITLE6=Window Of My Eyes
TTITLE7=Mary Had A Little Lamb
TTITLE8=I Call Her Honey
TTITLE9=Separate Ways (For Ruben)
TTITLE10=Counting The Days ( For SOS)
TTITLE11=Steppin' Out
TTITLE12=Bonus Track
EXTD=
EXTT0=
EXTT1=
EXTT2=
EXTT3=
EXTT4=
EXTT5=
EXTT6=
EXTT7=
EXTT8=
EXTT9=
EXTT10=
EXTT11=
EXTT12=
PLAYORDER=
